<?xml version="1.0" encoding="utf-8"?>
<!-- Generator: Adobe Illustrator 19.1.0, SVG Export Plug-In . SVG Version: 6.00 Build 0)  -->
<svg version="1.1" id="Layer_1" xmlns="http://www.w3.org/2000/svg" xmlns:xlink="http://www.w3.org/1999/xlink" x="0px" y="0px"
	 viewBox="-299 390.2 12.8 12.8" style="enable-background:new -299 390.2 12.8 12.8;" xml:space="preserve">
<style type="text/css">
	.st0{fill:#FFFFFF;}
</style>
<path class="st0" d="M-288.4,397.4c0.4,0,0.9-0.3,1-0.8l1.2-4.1c0.1-0.4-0.1-0.8-0.6-0.8h-8.2c0-0.9-0.7-1.6-1.6-1.6h-2.4v1.6h2.4
	v6.8c0,0.7,0.5,1.2,1.2,1.2h7.6c0.4,0,0.8-0.4,0.8-0.8c0-0.4-0.4-0.8-0.8-0.8h-7.2v-0.8H-288.4z M-295,393.4h7.2l-0.7,2.4h-6.5
	V393.4z M-294.2,402c0,0.6-0.4,1-1,1h-0.4c-0.5,0-1-0.4-1-1v-0.4c0-0.5,0.5-1,1-1h0.4c0.6,0,1,0.5,1,1V402z M-287,402
	c0,0.6-0.5,1-1,1h-0.4c-0.6,0-1-0.4-1-1v-0.4c0-0.5,0.4-1,1-1h0.4c0.5,0,1,0.5,1,1V402z"/>
</svg>
