<?xml version="1.0" encoding="utf-8"?>
<!-- Generator: Adobe Illustrator 18.1.1, SVG Export Plug-In . SVG Version: 6.00 Build 0)  -->
<svg version="1.1" id="Layer_1" xmlns="http://www.w3.org/2000/svg" xmlns:xlink="http://www.w3.org/1999/xlink" x="0px" y="0px"
	 viewBox="0 0 256 256" enable-background="new 0 0 256 256" xml:space="preserve">
<path fill="#333333" d="M249,111L145,7c-9.4-9.4-24.7-9.4-34,0L7,111c-9.4,9.4-9.4,24.7,0,34l104,104c9.4,9.4,24.7,9.4,34,0l104-104
	C258.3,135.6,258.3,120.3,249,111z M186.3,101.1L164,78.8L150.8,92l-22.6,22.6L106,92.4L92.8,79.2l-22.2,22.2L55.2,86.1l22.2-22.2
	l22.6-22.6l28.5-28.5l28.5,28.5l22.2,22.2l22.2,22.2L186.3,101.1z"/>
</svg>
